<svg xmlns="http://www.w3.org/2000/svg" width="149.5" height="20" fill="none"><path fill="#343a40" d="M0 0h149.5v20H0z"/><path fill="#fff" d="m7.388 13.337-1.187.72c-.161.107-.088.293 0 .33l4.61 2.639a.887.887 0 0 0 .88 0l4.67-2.673c.142-.086.119-.26 0-.319l-1.255-.692c-.106-.072-.342-.048-.425.01l-2.99 1.711a.887.887 0 0 1-.88 0l-3.017-1.726a.427.427 0 0 0-.406 0zM10.81 2.974a.887.887 0 0 1 .88 0l3.712 2.124c.148.077.161.282 0 .375l-.826.47a1.07 1.07 0 0 1-1.062 0l-1.825-1.045a.887.887 0 0 0-.88 0L8.983 5.944c-.33.188-.733.188-1.063 0-.28-.158-.613-.348-.855-.486-.137-.06-.166-.239 0-.342Z"/><path fill="#22d172" d="M17.06 6.171a.87.87 0 0 1 .44.756v6.146c0 .304-.186.36-.385.254l-1.375-.758V8.438l-4.05 2.317a.886.886 0 0 1-.88 0L6.76 8.438v4.13l-1.249.758c-.149.097-.511.127-.511-.254V6.928c0-.312.168-.6.44-.756.438-.234.89 0 .89 0l4.92 2.821 4.911-2.82s.437-.27.899 0z"/><path fill="#fff" d="M29.478 12.217c0 .312-.073.62-.22.924a2.17 2.17 0 0 1-.607.774 3.261 3.261 0 0 1-1.004.537c-.38.129-.838.193-1.375.193a6.896 6.896 0 0 1-1.558-.161 7.918 7.918 0 0 1-1.402-.478v-1.332h.075a4.42 4.42 0 0 0 1.402.779c.53.182 1.028.274 1.493.274.66 0 1.171-.124 1.536-.371.37-.247.554-.576.554-.988 0-.355-.088-.616-.264-.784-.171-.169-.435-.3-.79-.393a7.854 7.854 0 0 0-.875-.177 19.163 19.163 0 0 1-.993-.177c-.71-.15-1.236-.406-1.58-.768-.34-.365-.51-.84-.51-1.423 0-.67.283-1.218.849-1.644.566-.43 1.284-.645 2.154-.645.562 0 1.078.054 1.547.162.469.107.884.24 1.246.397v1.257h-.075c-.305-.258-.706-.471-1.204-.64-.494-.171-1-.257-1.52-.257-.569 0-1.027.118-1.375.354-.343.237-.515.541-.515.913 0 .333.086.595.258.785.171.19.474.334.907.435.23.05.555.11.978.182.422.072.78.145 1.074.22.594.158 1.042.396 1.343.715.3.319.451.764.451 1.337zm6.601 2.283h-1.01v-.666c-.34.269-.666.474-.977.618a2.44 2.44 0 0 1-1.031.214c-.63 0-1.121-.191-1.472-.574-.351-.387-.526-.953-.526-1.698V8.5h1.01v3.416c0 .305.014.566.042.785.029.214.09.399.183.553a.866.866 0 0 0 .376.344c.154.071.378.107.671.107.262 0 .546-.068.854-.204.312-.136.602-.31.87-.521V8.5h1.01zm7.267-3.072c0 .487-.07.932-.21 1.337a2.92 2.92 0 0 1-.59 1.02 2.449 2.449 0 0 1-1.853.833c-.312 0-.594-.034-.849-.102a3.526 3.526 0 0 1-.768-.317v2.514h-1.01V8.5h1.01v.629a3.87 3.87 0 0 1 .902-.564 2.552 2.552 0 0 1 1.075-.231c.723 0 1.285.274 1.686.822.405.544.607 1.301.607 2.272zm-1.042.027c0-.724-.123-1.264-.37-1.622-.248-.359-.627-.538-1.14-.538-.29 0-.58.063-.875.188-.293.126-.574.29-.843.495v3.4c.287.128.532.216.736.263.208.046.442.07.704.07.562 0 1-.19 1.315-.57.316-.38.473-.942.473-1.686zm7.896-.027c0 .487-.07.932-.21 1.337a2.92 2.92 0 0 1-.59 1.02 2.448 2.448 0 0 1-1.853.833c-.312 0-.595-.034-.85-.102a3.525 3.525 0 0 1-.767-.317v2.514h-1.01V8.5h1.01v.629a3.87 3.87 0 0 1 .902-.564 2.552 2.552 0 0 1 1.074-.231c.724 0 1.286.274 1.687.822.404.544.607 1.301.607 2.272zm-1.042.027c0-.724-.124-1.264-.37-1.622-.248-.359-.627-.538-1.14-.538-.29 0-.581.063-.875.188-.294.126-.575.29-.843.495v3.4c.286.128.531.216.735.263.208.046.443.07.704.07.562 0 1.001-.19 1.316-.57.315-.38.473-.942.473-1.686zm7.729.048c0 .977-.25 1.75-.752 2.315-.502.566-1.173.848-2.014.848-.849 0-1.524-.282-2.025-.848-.498-.566-.747-1.338-.747-2.315 0-.978.249-1.75.747-2.315.501-.57 1.176-.854 2.025-.854.841 0 1.512.285 2.014.854.501.566.752 1.337.752 2.315zm-1.042 0c0-.777-.153-1.354-.457-1.73-.304-.38-.727-.569-1.267-.569-.548 0-.974.19-1.279.57-.3.375-.45.952-.45 1.729 0 .752.151 1.323.456 1.713.304.387.728.58 1.273.58.537 0 .958-.191 1.262-.574.308-.387.462-.96.462-1.72zm6.354-1.901h-.054a3.996 3.996 0 0 0-.94-.102c-.311 0-.612.07-.902.209-.29.136-.57.313-.838.532V14.5h-1.01v-6h1.01v.887c.4-.323.754-.55 1.058-.682.308-.136.621-.205.94-.205.175 0 .303.006.381.017.079.007.197.023.355.048zm4.066 4.844a5.476 5.476 0 0 1-1.22.172c-.612 0-1.077-.165-1.396-.494-.319-.33-.478-.858-.478-1.584V9.35h-.682V8.5h.682V6.776h1.01V8.5h2.084v.85H64.18v2.733c0 .315.007.562.021.741.015.176.065.34.15.494a.744.744 0 0 0 .323.317c.14.065.35.097.634.097.164 0 .336-.023.515-.07.18-.05.308-.091.387-.123h.054zm6.246-2.841h-4.42c0 .369.055.691.166.967a1.805 1.805 0 0 0 1.117 1.058c.258.086.541.129.85.129.407 0 .817-.08 1.23-.242.414-.165.71-.326.885-.483h.054v1.1a8.34 8.34 0 0 1-1.042.36 4.227 4.227 0 0 1-1.117.146c-.996 0-1.773-.269-2.331-.806-.559-.54-.838-1.307-.838-2.299 0-.981.267-1.76.8-2.336.537-.577 1.243-.865 2.116-.865.81 0 1.433.236 1.87.709.44.473.66 1.144.66 2.014zm-.983-.774c-.003-.53-.138-.94-.403-1.23-.26-.29-.66-.435-1.197-.435-.541 0-.972.16-1.295.479-.318.318-.5.714-.542 1.187zm7.38 3.669h-1.01v-.628a3.68 3.68 0 0 1-.907.585c-.315.14-.657.21-1.026.21-.716 0-1.286-.276-1.708-.828-.42-.551-.629-1.316-.629-2.293a4 4 0 0 1 .215-1.359c.147-.397.344-.736.591-1.015a2.482 2.482 0 0 1 1.859-.838c.315 0 .594.034.837.102.244.064.5.167.768.306v-2.6h1.01zm-1.01-1.477V9.58a3.79 3.79 0 0 0-.73-.252 3.324 3.324 0 0 0-.704-.07c-.565 0-1.006.197-1.32.59-.316.394-.474.953-.474 1.676 0 .713.122 1.256.366 1.628.243.369.633.553 1.17.553.287 0 .577-.063.87-.188.294-.129.568-.294.822-.494zm12.144-1.568c0 .5-.071.952-.214 1.353-.14.401-.33.738-.57 1.01a2.641 2.641 0 0 1-.838.639c-.304.14-.639.21-1.004.21a2.9 2.9 0 0 1-.892-.124 4.029 4.029 0 0 1-.752-.322l-.064.279h-.945V6.143h1.01v2.986c.282-.233.583-.423.902-.57a2.49 2.49 0 0 1 1.074-.225c.709 0 1.268.272 1.676.816.412.545.617 1.313.617 2.305zM89 11.48c0-.716-.118-1.258-.354-1.627-.236-.372-.618-.559-1.144-.559-.294 0-.59.065-.892.194-.3.125-.58.288-.838.489v3.437c.287.129.532.218.736.269.208.05.442.075.704.075.558 0 .995-.183 1.31-.548.32-.369.478-.945.478-1.73zm7.805-2.98-3.502 8.212h-1.08l1.117-2.503-2.39-5.71h1.096l1.842 4.448L95.747 8.5zm12.391 5.999h-1.064v-6.89l-2.223 4.689h-.634l-2.208-4.69V14.5h-.993V6.502h1.45l2.132 4.453 2.063-4.453h1.477zm6.73 0h-1.005v-.64c-.089.062-.211.148-.365.259a2.916 2.916 0 0 1-1.02.462 3.054 3.054 0 0 1-.768.085 1.92 1.92 0 0 1-1.375-.537c-.376-.358-.564-.814-.564-1.37 0-.454.096-.821.29-1.1.197-.283.476-.505.838-.666.365-.162.803-.27 1.315-.328a27.05 27.05 0 0 1 1.649-.129v-.156c0-.229-.041-.419-.123-.569a.867.867 0 0 0-.344-.354 1.43 1.43 0 0 0-.516-.167c-.2-.029-.41-.043-.628-.043a4.2 4.2 0 0 0-.886.107 6.644 6.644 0 0 0-1.01.301h-.054V8.63c.197-.053.482-.112.854-.177.373-.064.74-.097 1.101-.097.423 0 .79.036 1.102.108.315.068.587.186.816.354.225.165.397.378.516.64.118.26.177.585.177.972zm-1.005-1.477v-1.67a36.57 36.57 0 0 0-1.09.08 5.606 5.606 0 0 0-.988.156c-.29.082-.525.211-.704.387-.179.171-.268.41-.268.714 0 .344.103.603.311.779.208.172.525.258.951.258.354 0 .678-.069.972-.205a4.45 4.45 0 0 0 .816-.5zm4.034-5.527h-1.139V6.45h1.139zm-.064 7.004h-1.01v-6h1.01zm3.018 0h-1.01V6.143h1.01zm5.113-.054a5.429 5.429 0 0 1-1.219.172c-.612 0-1.078-.164-1.396-.494-.319-.33-.478-.858-.478-1.584V9.35h-.682V8.5h.682V6.776h1.009V8.5h2.084v.85h-2.084v2.733c0 .315.008.562.022.741.014.176.064.34.15.494a.747.747 0 0 0 .323.317c.139.065.351.097.633.097.165 0 .337-.023.516-.07a3.98 3.98 0 0 0 .387-.123h.053zm4.969-4.844h-.054a4.012 4.012 0 0 0-.94-.102c-.311 0-.612.07-.902.209-.29.136-.57.313-.838.532v4.26h-1.01v-6h1.01v.887c.401-.323.754-.55 1.058-.682.308-.136.621-.205.94-.205.175 0 .302.006.381.017.079.007.197.023.355.048zm5.613 4.898h-1.005v-.64c-.089.062-.211.148-.365.259a2.598 2.598 0 0 1-.441.257 3.043 3.043 0 0 1-1.348.29 1.92 1.92 0 0 1-1.375-.537c-.376-.358-.564-.814-.564-1.37 0-.454.097-.821.29-1.1a1.97 1.97 0 0 1 .838-.666c.366-.162.804-.27 1.316-.328a26.52 26.52 0 0 1 1.649-.129v-.156c0-.229-.041-.419-.123-.569a.867.867 0 0 0-.344-.354 1.43 1.43 0 0 0-.516-.167c-.2-.029-.41-.043-.628-.043-.265 0-.561.036-.886.107a6.644 6.644 0 0 0-1.01.301h-.054V8.63c.197-.053.482-.112.854-.177a6.45 6.45 0 0 1 1.101-.097c.423 0 .79.036 1.101.108.315.068.587.186.817.354.225.165.397.378.515.64.118.26.178.585.178.972zm-1.005-1.477v-1.67a36.57 36.57 0 0 0-1.09.08 5.59 5.59 0 0 0-.988.156 1.607 1.607 0 0 0-.704.387c-.179.171-.269.41-.269.714 0 .344.104.603.312.779.208.172.524.258.951.258.354 0 .678-.069.972-.205.293-.14.565-.306.816-.5zm8.229-1.595c0 .487-.07.932-.21 1.337a2.9 2.9 0 0 1-.591 1.02 2.446 2.446 0 0 1-1.853.833 3.28 3.28 0 0 1-.848-.102 3.51 3.51 0 0 1-.768-.317v2.514h-1.01V8.5h1.01v.629c.268-.226.569-.414.902-.564a2.554 2.554 0 0 1 1.074-.231c.723 0 1.286.274 1.687.822.404.544.607 1.301.607 2.272zm-1.042.027c0-.724-.124-1.264-.371-1.622-.247-.359-.627-.538-1.139-.538-.29 0-.582.063-.875.188-.294.126-.575.29-.843.495v3.4c.286.128.531.216.735.263.208.046.443.07.704.07.562 0 1.001-.19 1.316-.57.315-.38.473-.942.473-1.686z"/></svg>